<svg viewBox="0 0 758.28 150" xmlns="http://www.w3.org/2000/svg" role="img" height="100%" width="100%">
<title>Wayfair.ca</title>
<path fill="#7b189f" strokeWidth="0px" d="m637.83,100.36c3.93,0,7.16,2.93,7.16,6.86s-3.23,6.76-7.16,6.76-7.06-2.82-7.06-6.76,3.23-6.86,7.06-6.86h0Z"></path><path fill="#7b189f" strokeWidth="0px" d="m682.09,64.79c7.46,0,14.21,2.92,18.65,8.17l-8.07,6.45c-2.52-2.92-6.45-4.54-10.59-4.54-7.87,0-14.82,5.55-14.82,14.32s6.96,14.72,14.82,14.72c4.13,0,8.07-1.71,10.59-4.64l8.17,6.35c-4.44,5.24-11.19,8.27-18.75,8.27-13.51,0-25.11-9.78-25.11-24.7s11.6-24.4,25.11-24.4h0Z"></path><path fill="#7b189f" strokeWidth="0px" d="m732.9,103.81c7.66,0,14.52-5.34,14.52-14.62s-7.46-14.32-14.52-14.32c-7.87,0-14.42,5.65-14.42,14.32s6.55,14.62,14.42,14.62h0Zm14.62,2.32c-3.12,5.14-9.98,7.76-15.83,7.76-12.7,0-23.89-9.58-23.89-24.6s11.19-24.5,23.89-24.5c5.64,0,12.6,2.32,15.83,7.66v-6.65h10.28v47.08h-10.28v-6.76h0Z"></path><path fill="#7b189f" strokeWidth="0px" d="m49.3,36.65l-12.22-12.22c-1.22-1.22-2.14-1.38-3.67-.92l-22.61,5.81c-2.44.61-3.67,1.83-4.28,4.28L.71,56.21c-.46,1.53-.31,2.44.92,3.67l12.22,12.22,35.45-35.45h0Zm5.81,0l35.45,35.45,12.22-12.22c1.22-1.22,1.38-2.14.92-3.67l-5.81-22.61c-.61-2.44-1.83-3.67-4.28-4.28l-22.61-5.81c-1.53-.46-2.44-.31-3.67.92l-12.22,12.22h0Zm0,76.7l12.22,12.22c1.22,1.22,2.14,1.38,3.67.92l22.61-5.81c2.44-.61,3.67-1.83,4.28-4.28l5.81-22.61c.46-1.53.31-2.44-.92-3.67l-12.22-12.22-35.45,35.45h0Zm-5.81,0L13.85,77.9l-12.22,12.22c-1.22,1.22-1.38,2.14-.92,3.67l5.81,22.61c.61,2.44,1.83,3.67,4.28,4.28l22.61,5.81c1.53.46,2.44.31,3.67-.92l12.22-12.22h0Z"></path><path fill="#7b189f" strokeWidth="0px" d="m452.86,52.39h-18.8v55.29c0,2.88-2.33,5.21-5.21,5.21h-14.65v-60.51h-17.1l-22.69,64.32c-9.17,25.82-18.18,32.54-34.23,32.54-3.06,0-7.95-.61-12.83-1.53l4.32-14.21h6.98c7.71,0,11.78-2.39,14.44-9.12,2.66-6.73,2.73-7.77,2.75-7.84l-27.2-79.45h17.24c2.29,0,4.31,1.49,4.98,3.68l15.37,49.95,16.2-49.35c1.07-3.06,2.44-4.28,5.5-4.28h26.27v-2.14c0-22.46,10.39-34.23,30.1-34.23,3.06,0,9.97.55,14.1,1.47l-4.36,14.27h-5.77c-7.85,0-14.21,6.36-14.21,14.21v6.42h23.44l-4.63,15.28h0Z"></path><path fill="#7b189f" strokeWidth="0px" d="m203.92,90.13l-15.28-49.66c-.76-2.6-1.83-3.36-4.43-3.36h-14.52c-2.6,0-3.67.76-4.43,3.36l-15.43,49.66-13.75-53.02h-21.85l22,72.42c.76,2.6,1.83,3.36,4.43,3.36h15.13c2.6,0,3.67-.76,4.43-3.36l16.04-51.03,16.2,51.03c.76,2.6,1.83,3.36,4.43,3.36h13.6c2.6,0,3.67-.76,4.43-3.36l22-72.42h-19.1l-13.9,53.02h0Z"></path><path fill="#7b189f" strokeWidth="0px" d="m646.16,41.6v-1.91h1.32c.59,0,.81.51.81.95s-.22.95-.88.95h-1.25Zm2.79-.95c0-.81-.44-1.61-1.54-1.61h-1.98v5.21h.73v-1.91h.66l1.32,1.91h.88l-1.39-1.98c.96-.07,1.32-.88,1.32-1.61h0Z"></path><path fill="#7b189f" strokeWidth="0px" d="m647.04,45.41c-2.13,0-3.82-1.69-3.82-3.82-.07-2.13,1.69-3.82,3.82-3.82s3.82,1.69,3.82,3.82-1.69,3.82-3.82,3.82h0Zm0-8.29c-2.5,0-4.48,1.98-4.48,4.48s1.98,4.48,4.48,4.48,4.48-1.98,4.48-4.48-2.05-4.48-4.48-4.48h0Z"></path><path fill="#7b189f" strokeWidth="0px" d="m562.55,1.05c-7.03,0-12.07,5.04-12.07,11.76s5.04,11.76,12.07,11.76,12.07-5.04,12.07-11.76-5.04-11.76-12.07-11.76h0Z"></path><polygon fill="#7b189f" strokeWidth="0px" points="552.62 112.89 572.49 112.89 572.49 37.11 552.62 37.11 552.62 112.89 552.62 112.89"></polygon><path fill="#7b189f" strokeWidth="0px" d="m279.59,98.57c-12.53,0-19.69-10.44-19.69-23.57s7.16-23.57,19.69-23.57,19.69,10.44,19.69,23.57-7.16,23.57-19.69,23.57h0Zm20.49-57.18l-.46,8.72c-4.74-11.31-14.36-14.52-25.67-14.52-20.78,0-33.77,18.79-33.77,39.42s12.99,39.42,33.77,39.42c11.31,0,20.93-3.22,25.67-14.52l.46,8.72c0,2.9,1.38,4.28,3.82,4.28h15.89V37.11h-15.89c-2.44,0-3.82,1.38-3.82,4.28h0Z"></path><path fill="#7b189f" strokeWidth="0px" d="m495.71,98.57c-12.53,0-19.69-10.44-19.69-23.57s7.16-23.57,19.69-23.57,19.69,10.44,19.69,23.57-7.16,23.57-19.69,23.57h0Zm20.49-57.18l-.46,8.72c-4.74-11.31-14.36-14.52-25.67-14.52-20.78,0-33.77,18.79-33.77,39.42s12.99,39.42,33.77,39.42c11.31,0,20.93-3.22,25.67-14.52l.46,8.72c0,2.9,1.37,4.28,3.82,4.28h15.89V37.11h-15.89c-2.44,0-3.82,1.38-3.82,4.28h0Z"></path><path fill="#7b189f" strokeWidth="0px" d="m633.15,36.34c-11.77,0-20.17,3.61-23.84,17.67l-.31-12.63c0-2.9-1.37-4.28-3.82-4.28h-15.89v75.78h19.86v-37.89c0-13.29,7.64-21.85,20.78-21.85h3.59l4.82-15.85c-1.86-.79-3.82-.95-5.19-.95h0Z"></path>
</svg>
